<svg width="268" height="47" viewBox="0 0 268 47" fill="none" xmlns="http://www.w3.org/2000/svg">
<path d="M37.0465 18.4672C37.0458 21.4788 36.311 24.4448 34.9057 27.1085C33.5004 29.7722 31.4671 32.0531 28.9817 33.754C26.4964 35.4548 23.6339 36.5242 20.6422 36.8696C17.6504 37.2149 14.6196 36.8259 11.8121 35.7361V18.4672C11.8107 19.9544 12.2504 21.4087 13.0757 22.6459C13.9009 23.8832 15.0746 24.8479 16.4482 25.418C17.8219 25.9881 19.3337 26.138 20.7925 25.8487C22.2514 25.5594 23.5916 24.8439 24.6438 23.7928C25.6959 22.7416 26.4126 21.4021 26.7033 19.9435C26.9939 18.4849 26.8455 16.9729 26.2766 15.5988C25.7078 14.2246 24.7442 13.05 23.5077 12.2236C22.2712 11.3972 20.8174 10.9561 19.3302 10.9561C18.3429 10.9555 17.3652 11.1495 16.4529 11.5269C15.5407 11.9044 14.7117 12.4579 14.0135 13.1559C13.3153 13.8539 12.7615 14.6827 12.3838 15.5948C12.006 16.5069 11.8117 17.4846 11.8121 18.4719V17.9354H0.0112915C0.165214 13.0806 2.21997 8.48053 5.73293 5.12617C9.24588 1.77181 13.9359 -0.0684103 18.7926 0.0019456C23.6493 0.0723015 28.284 2.0476 31.6983 5.50231C35.1127 8.95702 37.0333 13.6147 37.0465 18.4719V18.4672Z" fill="white"/>
<path d="M11.8125 31.9265V46.9206H0V18.467C0 24.6029 4.89648 29.8344 11.8125 31.9265Z" fill="white"/>
<path d="M11.8125 17.9307V35.7361C8.33133 34.3852 5.34019 32.0129 3.23199 28.9309C1.12379 25.8489 -0.00287464 22.2013 5.50825e-06 18.4672C5.50825e-06 18.2868 9.79769e-06 18.1134 0.0117239 17.9307H11.8125Z" fill="#4482C2"/>
<path d="M60.2637 12.2749C61.6375 11.5802 63.1597 11.2303 64.699 11.2554C66.5175 11.2335 68.3062 11.7175 69.8655 12.6534C71.4248 13.5893 72.6932 14.9402 73.5291 16.5554C74.4438 18.3394 74.9021 20.3224 74.863 22.327C74.8975 24.3493 74.4397 26.3497 73.5291 28.1557C72.7003 29.8048 71.4294 31.1911 69.8584 32.1598C68.3062 33.1135 66.5159 33.6089 64.6942 33.589C63.169 33.6174 61.6599 33.274 60.2971 32.5886C59.0902 31.982 58.0215 31.133 57.1576 30.0946V43.5196H52.6866V11.6008H57.1624V14.7808C57.998 13.7262 59.0572 12.8704 60.2637 12.2749ZM69.3915 18.4681C68.8269 17.4328 67.9836 16.5763 66.9571 15.9956C65.9689 15.4376 64.8525 15.1462 63.7176 15.15C62.5935 15.1498 61.4895 15.4482 60.5186 16.0147C59.4931 16.6061 58.6507 17.4691 58.0842 18.5086C57.4461 19.703 57.1285 21.0423 57.1624 22.396C57.1306 23.7556 57.448 25.1006 58.0842 26.3025C58.6252 27.3281 59.4356 28.1868 60.4282 28.7861C61.4208 29.3855 62.5581 29.7028 63.7176 29.704C64.8576 29.7083 65.9773 29.4028 66.9571 28.8203C67.9911 28.2056 68.8339 27.3158 69.3915 26.2501C70.0272 25.0394 70.3444 23.6869 70.3134 22.3198C70.3476 20.9744 70.0298 19.6434 69.3915 18.4586V18.4681Z" fill="white"/>
<path d="M79.1677 16.5554C80.0106 14.9409 81.2838 13.5911 82.8466 12.6557C84.4093 11.7202 86.2004 11.2356 88.0216 11.2555C89.5666 11.2197 91.0969 11.5632 92.4783 12.2559C93.6632 12.8536 94.7018 13.7051 95.5202 14.7499V11.6009H100.046V33.2342H95.5202V30.0209C94.6957 31.0966 93.6366 31.97 92.4236 32.5744C90.9188 33.3098 89.254 33.6572 87.5807 33.5848C85.9074 33.5124 84.2788 33.0226 82.8432 32.1599C81.2783 31.1837 80.0092 29.7994 79.1725 28.1558C78.247 26.3518 77.7814 24.3471 77.8171 22.3199C77.7777 20.3156 78.2421 18.3335 79.1677 16.5554ZM94.5983 18.5087C94.0378 17.4662 93.2024 16.5971 92.183 15.9957C91.2063 15.4241 90.0941 15.1254 88.9625 15.131C87.8342 15.1257 86.7244 15.4173 85.7444 15.9766C84.7262 16.5616 83.8901 17.4175 83.3291 18.4491C82.6892 19.6368 82.3714 20.9713 82.4072 22.3199C82.377 23.6853 82.6942 25.0361 83.3291 26.2454C83.8867 27.3111 84.7296 28.201 85.7635 28.8156C86.7298 29.3958 87.8354 29.7029 88.9625 29.7041C90.0939 29.7104 91.2062 29.4126 92.183 28.8418C93.2059 28.2362 94.0417 27.36 94.5983 26.3097C95.2345 25.1078 95.5519 23.7628 95.5202 22.4032C95.5552 21.0471 95.2376 19.7051 94.5983 18.5087Z" fill="white"/>
<path d="M116.406 15.26V11.6012H111.149V7.35889L106.623 8.78809V11.6012H104.079V15.2528H106.639V27.2271C106.639 29.3471 107.175 30.8787 108.247 31.822C109.319 32.7653 110.864 33.2361 112.883 33.2345H116.406V29.5139H113.657C112.742 29.5139 112.092 29.3352 111.713 28.9827C111.334 28.6301 111.149 28.0442 111.149 27.2343V15.26H116.406Z" fill="white"/>
<path d="M120.764 7.91854C120.352 7.51927 120.071 7.00551 119.955 6.44398C119.839 5.88244 119.895 5.2991 120.115 4.76972C120.335 4.24033 120.71 3.78937 121.189 3.47543C121.669 3.16148 122.232 2.99905 122.805 3.00924C123.178 3.00282 123.548 3.07285 123.893 3.21501C124.237 3.35717 124.549 3.56845 124.809 3.83579C125.337 4.38375 125.633 5.1156 125.633 5.87717C125.633 6.63874 125.337 7.37058 124.809 7.91854C124.548 8.18511 124.237 8.39572 123.892 8.53744C123.548 8.67917 123.178 8.74902 122.805 8.74271C122.427 8.75172 122.051 8.68324 121.699 8.54151C121.348 8.39979 121.03 8.18779 120.764 7.91854Z" fill="white"/>
<path d="M125.005 11.6077H120.529V33.241H125.005V11.6077Z" fill="white"/>
<path d="M150.564 24.0924H134.033C134.165 25.8218 134.806 27.2097 135.957 28.2562C137.116 29.3057 138.635 29.868 140.197 29.8259C142.603 29.8259 144.304 28.8183 145.3 26.8032H150.13C149.493 28.7678 148.249 30.4794 146.576 31.691C144.861 32.9614 142.735 33.5966 140.197 33.5966C138.255 33.6287 136.338 33.148 134.64 32.2031C133.015 31.2814 131.682 29.92 130.796 28.2752C129.867 26.5872 129.402 24.6308 129.402 22.406C129.402 20.1812 129.854 18.2248 130.757 16.5367C131.62 14.8908 132.945 13.5329 134.569 12.6303C136.296 11.691 138.238 11.2173 140.204 11.2558C142.108 11.2224 143.988 11.6819 145.662 12.5898C147.236 13.4583 148.53 14.7592 149.389 16.339C150.304 18.0453 150.764 19.9583 150.726 21.8939C150.73 22.6298 150.676 23.365 150.564 24.0924ZM146.038 20.4813C146.011 18.833 145.423 17.511 144.273 16.5153C143.123 15.5196 141.694 15.0226 139.985 15.0242C138.524 14.9935 137.106 15.5198 136.019 16.4962C134.92 17.4776 134.266 18.806 134.057 20.4813H146.038Z" fill="white"/>
<path d="M170.605 12.3156C171.951 13.0195 173.053 14.1139 173.766 15.4551C174.524 16.8446 174.903 18.5199 174.905 20.4811V33.2415H170.477V21.1481C170.477 19.2107 169.993 17.7259 169.026 16.6937C168.059 15.6615 166.737 15.1438 165.06 15.1407C163.383 15.1407 162.055 15.6583 161.075 16.6937C160.095 17.7291 159.604 19.2139 159.603 21.1481V33.2415H155.117V11.601H159.593V14.0735C160.35 13.1667 161.312 12.4537 162.399 11.994C163.545 11.495 164.782 11.2411 166.032 11.2485C167.621 11.2239 169.191 11.5904 170.605 12.3156Z" fill="white"/>
<path d="M191.081 15.2598V11.601H185.819V7.12524L181.305 8.55445V11.601H178.751V15.2526H181.305V27.2269C181.305 29.3469 181.841 30.8785 182.913 31.8218C183.985 32.7651 185.529 33.2359 187.546 33.2343H191.081V29.5137H188.341C187.422 29.5137 186.776 29.335 186.398 28.9825C186.019 28.6299 185.828 28.044 185.828 27.2341V15.2598H191.081Z" fill="white"/>
<path d="M208.375 12.2557C209.569 12.8392 210.61 13.6931 211.416 14.7496V11.6006H215.942V33.5865C215.975 35.4376 215.543 37.2674 214.684 38.9079C213.854 40.4559 212.593 41.7307 211.054 42.5785C209.466 43.4662 207.575 43.9109 205.38 43.9125C202.447 43.9125 200.013 43.2256 198.077 41.852C197.148 41.2223 196.37 40.3946 195.799 39.4284C195.227 38.4622 194.877 37.3815 194.773 36.2639H199.209C199.568 37.4139 200.344 38.3879 201.386 38.9936C202.588 39.7115 203.971 40.0726 205.371 40.0346C207.176 40.0346 208.636 39.4851 209.749 38.3862C210.862 37.2873 211.418 35.6906 211.416 33.596V29.9825C210.532 31.1251 209.395 32.0462 208.093 32.673C206.792 33.2998 205.362 33.615 203.918 33.5936C202.097 33.6136 200.307 33.1181 198.756 32.1644C197.182 31.1934 195.904 29.8082 195.064 28.1603C194.138 26.3547 193.674 24.3483 193.711 22.3196C193.671 20.3128 194.136 18.3281 195.064 16.5481C195.907 14.9339 197.181 13.5844 198.743 12.649C200.306 11.7136 202.097 11.2288 203.918 11.2481C205.463 11.2206 206.992 11.5662 208.375 12.2557ZM210.494 18.5084C209.935 17.4654 209.099 16.5962 208.079 15.9954C207.103 15.4242 205.992 15.1255 204.861 15.1308C203.732 15.125 202.621 15.4167 201.641 15.9764C200.622 16.5614 199.786 17.4172 199.225 18.4489C198.585 19.6365 198.268 20.971 198.303 22.3196C198.273 23.6851 198.59 25.0359 199.225 26.2452C199.783 27.3109 200.626 28.2007 201.66 28.8153C202.627 29.3959 203.733 29.703 204.861 29.7038C205.992 29.7099 207.103 29.4121 208.079 28.8415C209.102 28.2376 209.939 27.362 210.494 26.3119C211.131 25.1099 211.448 23.7649 211.416 22.4054C211.452 21.0485 211.134 19.7056 210.494 18.5084Z" fill="white"/>
<path d="M228.907 12.1774C230.093 11.5382 231.426 11.2204 232.773 11.2556V15.8886H231.634C229.887 15.8886 228.559 16.3332 227.649 17.2225C226.739 18.1117 226.288 19.6561 226.296 21.8555V33.2414H221.82V11.601H226.296V14.7428C226.924 13.6714 227.825 12.7861 228.907 12.1774Z" fill="white"/>
<path d="M237.132 7.91854C236.721 7.51927 236.439 7.00551 236.323 6.44398C236.208 5.88244 236.263 5.2991 236.484 4.76972C236.704 4.24033 237.078 3.78937 237.558 3.47543C238.037 3.16148 238.6 2.99905 239.174 3.00924C239.546 3.00258 239.916 3.07251 240.26 3.2147C240.604 3.35689 240.916 3.56829 241.175 3.83579C241.705 4.38318 242.001 5.11524 242.001 5.87717C242.001 6.6391 241.705 7.37116 241.175 7.91854C240.915 8.18527 240.604 8.39602 240.259 8.53776C239.915 8.67951 239.546 8.74926 239.174 8.74271C238.795 8.75172 238.419 8.68324 238.068 8.54151C237.717 8.39979 237.398 8.18779 237.132 7.91854Z" fill="white"/>
<path d="M241.372 11.6077H236.896V33.241H241.372V11.6077Z" fill="white"/>
<path d="M247.122 16.5551C247.968 14.9349 249.248 13.5815 250.818 12.6457C252.389 11.71 254.188 11.2286 256.016 11.2551C257.459 11.2618 258.884 11.576 260.196 12.177C261.472 12.7172 262.596 13.5591 263.474 14.6304V4.18774H268V33.2481H263.474V29.9824C262.684 31.0789 261.64 31.968 260.432 32.574C259.052 33.2729 257.522 33.6229 255.976 33.5935C254.155 33.6135 252.365 33.118 250.814 32.1643C249.24 31.1926 247.963 29.8076 247.122 28.1602C246.196 26.3545 245.731 24.3482 245.769 22.3195C245.73 20.3151 246.195 18.333 247.122 16.5551ZM262.552 18.5083C261.992 17.4653 261.157 16.596 260.137 15.9953C259.161 15.4238 258.05 15.1252 256.919 15.1306C255.79 15.1249 254.679 15.4166 253.698 15.9763C252.681 16.5614 251.846 17.4173 251.285 18.4488C250.644 19.6358 250.325 20.9706 250.361 22.3195C250.331 23.6853 250.649 25.0364 251.285 26.2451C251.842 27.3106 252.684 28.2005 253.717 28.8152C254.684 29.3958 255.791 29.7029 256.919 29.7037C258.049 29.71 259.161 29.4122 260.137 28.8414C261.161 28.2369 261.997 27.3604 262.552 26.3094C263.188 25.1074 263.506 23.7624 263.474 22.4029C263.509 21.0468 263.192 19.7048 262.552 18.5083Z" fill="white"/>
</svg>
