<svg width="170" height="30" viewBox="0 0 170 30" fill="none" xmlns="http://www.w3.org/2000/svg">
<path d="M23.4998 11.7143C23.4993 13.6246 23.0332 15.5061 22.1418 17.1957C21.2504 18.8853 19.9606 20.3322 18.384 21.4111C16.8075 22.49 14.9918 23.1683 13.094 23.3874C11.1963 23.6065 9.27371 23.3597 7.49282 22.6684V11.7143C7.49194 12.6577 7.77088 13.5801 8.29437 14.365C8.81785 15.1498 9.56234 15.7617 10.4337 16.1234C11.305 16.485 12.264 16.5801 13.1894 16.3966C14.1148 16.2131 14.9649 15.7592 15.6323 15.0924C16.2997 14.4257 16.7544 13.5759 16.9388 12.6507C17.1231 11.7255 17.0289 10.7664 16.6681 9.89475C16.3073 9.02308 15.6961 8.278 14.9117 7.75379C14.1274 7.22957 13.2052 6.94977 12.2618 6.94977C11.6355 6.94938 11.0153 7.07241 10.4367 7.31185C9.85798 7.55128 9.33217 7.90241 8.88927 8.34516C8.44638 8.78792 8.09508 9.31362 7.85547 9.89222C7.61586 10.4708 7.49263 11.091 7.49282 11.7172V11.3769H0.00726318C0.1049 8.29738 1.40829 5.37944 3.63666 3.25167C5.86502 1.12391 8.84002 -0.0433946 11.9208 0.00123415C15.0015 0.0458629 17.9415 1.29885 20.1073 3.49027C22.2731 5.68169 23.4914 8.63616 23.4998 11.7172V11.7143Z" fill="#77AEF6"/>
<path d="M7.49299 20.252V29.7631H0V11.7143C0 15.6064 3.10598 18.9249 7.49299 20.252Z" fill="#77AEF6"/>
<path d="M7.493 11.3741V22.6685C5.2848 21.8116 3.38744 20.3068 2.05014 18.3518C0.712851 16.3968 -0.00182347 14.083 3.49404e-06 11.7144C3.49404e-06 11.5999 6.21495e-06 11.49 0.00743679 11.3741H7.493Z" fill="#4482C2"/>
<path d="M38.2268 7.78596C39.0982 7.34528 40.0638 7.12332 41.0402 7.13926C42.1937 7.12533 43.3284 7.43235 44.3175 8.02602C45.3066 8.6197 46.1112 9.47665 46.6414 10.5012C47.2216 11.6329 47.5123 12.8907 47.4875 14.1623C47.5094 15.4451 47.219 16.714 46.6414 17.8596C46.1157 18.9057 45.3095 19.7851 44.313 20.3995C43.3283 21.0045 42.1928 21.3187 41.0372 21.3061C40.0697 21.3241 39.1124 21.1063 38.248 20.6715C37.4824 20.2867 36.8045 19.7482 36.2565 19.0895V27.6053H33.4204V7.35835H36.2595V9.37549C36.7896 8.70658 37.4615 8.16368 38.2268 7.78596ZM44.0168 11.7145C43.6587 11.0577 43.1237 10.5144 42.4726 10.1461C41.8458 9.79211 41.1376 9.60727 40.4177 9.6097C39.7047 9.60957 39.0044 9.79885 38.3885 10.1582C37.738 10.5333 37.2036 11.0808 36.8443 11.7402C36.4395 12.4978 36.2381 13.3474 36.2595 14.2061C36.2394 15.0685 36.4407 15.9216 36.8443 16.6841C37.1874 17.3346 37.7015 17.8793 38.3311 18.2595C38.9608 18.6397 39.6822 18.841 40.4177 18.8417C41.1408 18.8444 41.8511 18.6507 42.4726 18.2811C43.1285 17.8913 43.6631 17.3268 44.0168 16.6508C44.4201 15.8828 44.6213 15.0249 44.6016 14.1577C44.6233 13.3043 44.4217 12.46 44.0168 11.7084V11.7145Z" fill="#282828"/>
<path d="M50.2182 10.5012C50.7528 9.47702 51.5605 8.62084 52.5518 8.02747C53.543 7.43409 54.6792 7.12667 55.8344 7.13927C56.8145 7.11657 57.7852 7.33447 58.6615 7.77388C59.4131 8.15302 60.0719 8.69316 60.591 9.35586V7.35837H63.4618V21.081H60.591V19.0427C60.068 19.7251 59.3962 20.2791 58.6267 20.6625C57.6722 21.129 56.6162 21.3493 55.5547 21.3034C54.4933 21.2575 53.4602 20.9468 52.5496 20.3995C51.557 19.7803 50.752 18.9022 50.2212 17.8596C49.6341 16.7153 49.3388 15.4437 49.3615 14.1577C49.3365 12.8864 49.631 11.6291 50.2182 10.5012ZM60.0062 11.7402C59.6507 11.0789 59.1208 10.5276 58.4741 10.1461C57.8546 9.78355 57.1491 9.59411 56.4313 9.59762C55.7156 9.59426 55.0116 9.77925 54.39 10.134C53.7441 10.5051 53.2137 11.048 52.8578 11.7024C52.4519 12.4558 52.2503 13.3023 52.2731 14.1577C52.2539 15.0239 52.4551 15.8807 52.8578 16.6478C53.2116 17.3238 53.7462 17.8883 54.402 18.2781C55.015 18.6462 55.7163 18.841 56.4313 18.8417C57.1489 18.8458 57.8545 18.6569 58.4741 18.2948C59.123 17.9107 59.6532 17.3548 60.0062 16.6886C60.4098 15.9262 60.6111 15.073 60.591 14.2106C60.6132 13.3504 60.4117 12.4991 60.0062 11.7402Z" fill="#282828"/>
<path d="M73.8392 9.6793V7.35846H70.5045V4.66742L67.6337 5.574V7.35846H66.02V9.67477H67.6443V17.2704C67.6443 18.6152 67.9842 19.5867 68.6642 20.1851C69.3441 20.7834 70.3242 21.0821 71.6045 21.0811H73.8392V18.7209H72.0956C71.5154 18.7209 71.1029 18.6076 70.8626 18.384C70.6224 18.1604 70.5045 17.7887 70.5045 17.275V9.6793H73.8392Z" fill="#282828"/>
<path d="M76.6039 5.0225C76.3429 4.76924 76.1641 4.44335 76.0907 4.08715C76.0173 3.73095 76.0527 3.36092 76.1924 3.02512C76.332 2.68931 76.5694 2.40326 76.8737 2.20411C77.178 2.00497 77.5352 1.90194 77.8988 1.9084C78.1352 1.90432 78.3699 1.94875 78.5885 2.03892C78.807 2.1291 79.0048 2.26312 79.1695 2.4327C79.505 2.78029 79.6925 3.24452 79.6925 3.72761C79.6925 4.21069 79.505 4.67492 79.1695 5.0225C79.0045 5.1916 78.8066 5.3252 78.5881 5.41509C78.3696 5.50499 78.135 5.5493 77.8988 5.5453C77.6587 5.55101 77.42 5.50758 77.1973 5.41768C76.9747 5.32777 76.7727 5.1933 76.6039 5.0225Z" fill="#282828"/>
<path d="M79.294 7.36292H76.4549V21.0855H79.294V7.36292Z" fill="#282828"/>
<path d="M95.5067 15.2819H85.0206C85.1042 16.3789 85.5111 17.2593 86.2414 17.9231C86.9763 18.5889 87.9397 18.9455 88.931 18.9188C90.457 18.9188 91.5359 18.2797 92.1675 17.0014H95.2317C94.8277 18.2477 94.0383 19.3334 92.9773 20.1019C91.8894 20.9078 90.5407 21.3107 88.931 21.3107C87.6987 21.331 86.4828 21.0261 85.4059 20.4268C84.3748 19.8421 83.5296 18.9785 82.9672 17.9352C82.3779 16.8644 82.0833 15.6234 82.0833 14.2122C82.0833 12.8009 82.3698 11.5599 82.943 10.4891C83.49 9.44508 84.3303 8.58375 85.3605 8.01115C86.4564 7.41533 87.6884 7.11488 88.9355 7.13932C90.143 7.1181 91.3355 7.4096 92.3971 7.98547C93.3961 8.53639 94.2166 9.36161 94.7618 10.3637C95.342 11.4461 95.6339 12.6595 95.6095 13.8873C95.612 14.3542 95.5777 14.8205 95.5067 15.2819ZM92.6359 12.9913C92.6187 11.9457 92.2455 11.1071 91.5162 10.4755C90.7869 9.84396 89.8804 9.52867 88.7965 9.52968C87.8698 9.51025 86.9703 9.84408 86.2807 10.4635C85.5837 11.086 85.1687 11.9286 85.0357 12.9913H92.6359Z" fill="#282828"/>
<path d="M108.22 7.81183C109.073 8.25836 109.772 8.95253 110.225 9.80329C110.705 10.6847 110.946 11.7474 110.947 12.9914V21.0857H108.138V13.4145C108.138 12.1856 107.831 11.2437 107.218 10.589C106.604 9.93424 105.766 9.60586 104.702 9.60384C103.638 9.60384 102.796 9.93223 102.174 10.589C101.553 11.2458 101.241 12.1876 101.24 13.4145V21.0857H98.3953V7.35854H101.234V8.92693C101.714 8.35171 102.324 7.89946 103.014 7.60786C103.741 7.29132 104.526 7.13023 105.319 7.13492C106.326 7.11933 107.323 7.35179 108.22 7.81183Z" fill="#282828"/>
<path d="M121.208 9.67925V7.3584H117.87V4.51929L115.007 5.42587V7.3584H113.387V9.67472H115.007V17.2704C115.007 18.6151 115.347 19.5867 116.027 20.185C116.706 20.7834 117.686 21.082 118.965 21.081H121.208V18.7209H119.47C118.887 18.7209 118.477 18.6076 118.237 18.3839C117.997 18.1603 117.876 17.7886 117.876 17.2749V9.67925H121.208Z" fill="#282828"/>
<path d="M132.178 7.77393C132.935 8.14406 133.596 8.68573 134.107 9.35591V7.35841H136.978V21.3047C136.999 22.4789 136.725 23.6396 136.18 24.6802C135.653 25.6621 134.854 26.4707 133.878 27.0086C132.87 27.5717 131.671 27.8537 130.278 27.8547C128.418 27.8547 126.874 27.4191 125.646 26.5477C125.056 26.1483 124.563 25.6232 124.2 25.0103C123.838 24.3975 123.616 23.7119 123.55 23.003H126.364C126.591 23.7325 127.084 24.3503 127.745 24.7346C128.507 25.19 129.384 25.419 130.272 25.3949C131.418 25.3949 132.343 25.0463 133.05 24.3493C133.756 23.6522 134.108 22.6394 134.107 21.3107V19.0186C133.547 19.7433 132.825 20.3276 131.999 20.7252C131.174 21.1228 130.267 21.3227 129.351 21.3092C128.196 21.3219 127.061 21.0076 126.076 20.4026C125.078 19.7867 124.268 18.908 123.734 17.8627C123.147 16.7173 122.853 15.4446 122.876 14.1578C122.851 12.8848 123.146 11.6258 123.734 10.4967C124.269 9.47276 125.077 8.61677 126.068 8.02342C127.059 7.43008 128.196 7.12253 129.351 7.13479C130.331 7.11731 131.301 7.33656 132.178 7.77393ZM133.522 11.7402C133.167 11.0786 132.637 10.5272 131.99 10.1461C131.371 9.78378 130.666 9.59435 129.949 9.59767C129.233 9.59404 128.528 9.77904 127.906 10.1341C127.26 10.5051 126.73 11.048 126.374 11.7024C125.968 12.4558 125.767 13.3023 125.789 14.1578C125.77 15.0239 125.971 15.8808 126.374 16.6478C126.728 17.3239 127.262 17.8883 127.918 18.2782C128.532 18.6464 129.234 18.8412 129.949 18.8418C130.666 18.8456 131.371 18.6567 131.99 18.2948C132.64 17.9117 133.17 17.3563 133.522 16.6902C133.926 15.9277 134.127 15.0746 134.107 14.2122C134.13 13.3514 133.928 12.4996 133.522 11.7402Z" fill="#282828"/>
<path d="M145.202 7.72408C145.954 7.31862 146.8 7.11703 147.654 7.13933V10.0782H146.932C145.824 10.0782 144.981 10.3602 144.404 10.9243C143.827 11.4884 143.541 12.468 143.546 13.8631V21.0856H140.707V7.35843H143.546V9.35139C143.944 8.67179 144.516 8.11018 145.202 7.72408Z" fill="#282828"/>
<path d="M150.42 5.0225C150.159 4.76924 149.98 4.44335 149.906 4.08715C149.833 3.73095 149.868 3.36092 150.008 3.02512C150.148 2.68931 150.385 2.40326 150.689 2.20411C150.994 2.00497 151.351 1.90194 151.715 1.9084C151.951 1.90417 152.185 1.94853 152.404 2.03873C152.622 2.12892 152.819 2.26302 152.984 2.4327C153.32 2.77992 153.508 3.24429 153.508 3.72761C153.508 4.21092 153.32 4.67528 152.984 5.0225C152.819 5.1917 152.622 5.32538 152.403 5.4153C152.185 5.50521 151.951 5.54945 151.715 5.5453C151.474 5.55101 151.236 5.50758 151.013 5.41768C150.79 5.32777 150.588 5.1933 150.42 5.0225Z" fill="#282828"/>
<path d="M153.109 7.36292H150.27V21.0855H153.109V7.36292Z" fill="#282828"/>
<path d="M156.756 10.5013C157.293 9.47357 158.105 8.61509 159.101 8.02151C160.097 7.42793 161.239 7.12256 162.398 7.13942C163.314 7.14364 164.218 7.34298 165.05 7.72416C165.859 8.06682 166.572 8.60091 167.129 9.28046V2.65637H170V21.0902H167.129V19.0187C166.628 19.7142 165.966 20.2782 165.199 20.6626C164.324 21.1059 163.353 21.3279 162.372 21.3093C161.217 21.322 160.082 21.0077 159.098 20.4027C158.1 19.7863 157.29 18.9078 156.756 17.8628C156.169 16.7174 155.874 15.4447 155.898 14.1579C155.873 12.8864 156.168 11.6291 156.756 10.5013ZM166.544 11.7403C166.189 11.0787 165.659 10.5273 165.012 10.1462C164.393 9.78374 163.688 9.5943 162.971 9.59777C162.255 9.59414 161.55 9.77914 160.928 10.1342C160.282 10.5053 159.753 11.0483 159.397 11.7025C158.99 12.4555 158.788 13.3022 158.811 14.1579C158.792 15.0242 158.993 15.8813 159.397 16.6479C159.75 17.3239 160.285 17.8883 160.94 18.2783C161.553 18.6465 162.255 18.8413 162.971 18.8419C163.688 18.8459 164.393 18.657 165.012 18.2949C165.661 17.9114 166.192 17.3555 166.544 16.6887C166.948 15.9263 167.149 15.0732 167.129 14.2108C167.151 13.3505 166.95 12.4993 166.544 11.7403Z" fill="#282828"/>
</svg>
