<svg width="190" height="34" viewBox="0 0 190 34" fill="none" xmlns="http://www.w3.org/2000/svg">
<path d="M26.2643 13.0924C26.2638 15.2275 25.7428 17.3303 24.7466 19.2187C23.7503 21.1071 22.3088 22.7242 20.5467 23.9301C18.7847 25.1359 16.7554 25.894 14.6344 26.1389C12.5133 26.3837 10.3646 26.1079 8.37421 25.3353V13.0924C8.37322 14.1468 8.68498 15.1778 9.27005 16.0549C9.85512 16.9321 10.6872 17.616 11.661 18.0202C12.6349 18.4244 13.7067 18.5307 14.741 18.3256C15.7752 18.1205 16.7254 17.6132 17.4713 16.868C18.2172 16.1228 18.7254 15.1731 18.9314 14.139C19.1375 13.105 19.0322 12.0331 18.629 11.0588C18.2257 10.0846 17.5425 9.25189 16.6659 8.666C15.7893 8.08011 14.7586 7.76739 13.7042 7.76739C13.0043 7.76695 12.3111 7.90446 11.6644 8.17206C11.0176 8.43966 10.43 8.8321 9.93495 9.32695C9.43995 9.8218 9.04732 10.4093 8.77952 11.056C8.51172 11.7027 8.37399 12.3958 8.37421 13.0957V12.7154H0.00799561C0.11712 9.27355 1.57385 6.01231 4.06438 3.63422C6.55491 1.25613 9.8799 -0.0484999 13.3231 0.00137934C16.7663 0.0512585 20.0521 1.45166 22.4727 3.90089C24.8933 6.35013 26.255 9.65218 26.2643 13.0957V13.0924Z" fill="#77AEF6"/>
<path d="M8.37452 22.6348V33.2649H0V13.0926C0 17.4426 3.47139 21.1515 8.37452 22.6348Z" fill="#77AEF6"/>
<path d="M8.37453 12.7122V25.3355C5.90654 24.3777 3.78596 22.6959 2.29134 20.5109C0.796715 18.3259 -0.00203799 15.7399 3.90511e-06 13.0926C3.90511e-06 12.9647 6.94612e-06 12.8418 0.00831171 12.7122H8.37453Z" fill="#4482C2"/>
<path d="M42.7243 8.70216C43.6982 8.20963 44.7774 7.96156 45.8687 7.97938C47.1579 7.96381 48.4261 8.30695 49.5315 8.97047C50.637 9.63399 51.5362 10.5918 52.1288 11.7368C52.7773 13.0016 53.1022 14.4075 53.0745 15.8286C53.0989 17.2623 52.7744 18.6805 52.1288 19.9609C51.5412 21.1301 50.6403 22.1129 49.5265 22.7997C48.426 23.4758 47.1568 23.827 45.8653 23.8129C44.784 23.833 43.7141 23.5896 42.7479 23.1037C41.8923 22.6736 41.1346 22.0717 40.5222 21.3356V30.8532H37.3524V8.22425H40.5255V10.4787C41.1179 9.73109 41.8689 9.12432 42.7243 8.70216ZM49.1955 13.0929C48.7952 12.3589 48.1973 11.7516 47.4696 11.34C46.769 10.9443 45.9775 10.7377 45.1729 10.7405C44.376 10.7403 43.5933 10.9519 42.905 11.3535C42.1779 11.7728 41.5807 12.3846 41.1791 13.1216C40.7267 13.9683 40.5015 14.9179 40.5255 15.8776C40.503 16.8414 40.728 17.795 41.1791 18.6471C41.5626 19.3742 42.1372 19.9829 42.8409 20.4079C43.5446 20.8328 44.3509 21.0578 45.1729 21.0586C45.9811 21.0616 46.7749 20.8451 47.4696 20.4321C48.2026 19.9963 48.8001 19.3655 49.1955 18.6099C49.6462 17.7516 49.8711 16.7927 49.849 15.8235C49.8733 14.8697 49.648 13.9261 49.1955 13.0861V13.0929Z" fill="#282828"/>
<path d="M56.1264 11.7369C56.7239 10.5923 57.6266 9.63535 58.7345 8.97216C59.8424 8.30897 61.1123 7.96539 62.4034 7.97947C63.4987 7.9541 64.5836 8.19763 65.563 8.68874C66.403 9.11249 67.1393 9.71617 67.7195 10.4568V8.22434H70.9281V23.5614H67.7195V21.2833C67.1351 22.046 66.3842 22.6651 65.5242 23.0936C64.4574 23.615 63.2771 23.8613 62.0908 23.81C60.9045 23.7587 59.7499 23.4114 58.7321 22.7998C57.6227 22.1077 56.723 21.1263 56.1298 19.961C55.4736 18.6821 55.1436 17.2608 55.1689 15.8236C55.1409 14.4027 55.4702 12.9975 56.1264 11.7369ZM67.066 13.1217C66.6686 12.3826 66.0764 11.7664 65.3536 11.3401C64.6612 10.9348 63.8727 10.7231 63.0704 10.727C62.2705 10.7233 61.4837 10.93 60.789 11.3265C60.0671 11.7413 59.4743 12.3481 59.0766 13.0794C58.6229 13.9214 58.3976 14.8675 58.4231 15.8236C58.4016 16.7917 58.6265 17.7493 59.0766 18.6067C59.472 19.3622 60.0695 19.9931 60.8025 20.4288C61.4875 20.8402 62.2714 21.0579 63.0704 21.0587C63.8725 21.0632 64.6611 20.8521 65.3536 20.4474C66.0788 20.0181 66.6714 19.3969 67.066 18.6523C67.517 17.8001 67.742 16.8466 67.7195 15.8827C67.7444 14.9213 67.5192 13.9699 67.066 13.1217Z" fill="#282828"/>
<path d="M82.5264 10.8184V8.22447H78.7993V5.21684L75.5907 6.23008V8.22447H73.7872V10.8133H75.6026V19.3025C75.6026 20.8055 75.9825 21.8914 76.7424 22.5601C77.5024 23.2288 78.5978 23.5627 80.0287 23.5615H82.5264V20.9237H80.5776C79.9291 20.9237 79.4681 20.7971 79.1996 20.5471C78.931 20.2972 78.7993 19.8818 78.7993 19.3076V10.8184H82.5264Z" fill="#282828"/>
<path d="M85.6163 5.61347C85.3246 5.33041 85.1247 4.96617 85.0427 4.56807C84.9607 4.16997 85.0003 3.7564 85.1564 3.38109C85.3124 3.00578 85.5777 2.68607 85.9178 2.4635C86.2579 2.24093 86.6571 2.12577 87.0635 2.133C87.3277 2.12844 87.5901 2.17809 87.8343 2.27888C88.0786 2.37966 88.2996 2.52945 88.4838 2.71899C88.8587 3.10746 89.0683 3.62631 89.0683 4.16623C89.0683 4.70615 88.8587 5.22499 88.4838 5.61347C88.2993 5.80245 88.0782 5.95177 87.834 6.05224C87.5897 6.15272 87.3276 6.20224 87.0635 6.19777C86.7952 6.20415 86.5284 6.15561 86.2795 6.05513C86.0307 5.95465 85.805 5.80435 85.6163 5.61347Z" fill="#282828"/>
<path d="M88.6229 8.22925H85.4498V23.5663H88.6229V8.22925Z" fill="#282828"/>
<path d="M106.743 17.0801H95.0232C95.1166 18.3061 95.5715 19.29 96.3877 20.032C97.209 20.7761 98.2857 21.1747 99.3936 21.1448C101.099 21.1448 102.305 20.4305 103.011 19.0018H106.436C105.984 20.3947 105.102 21.6081 103.916 22.4671C102.7 23.3678 101.193 23.8181 99.3936 23.8181C98.0163 23.8408 96.6574 23.5001 95.4538 22.8302C94.3015 22.1767 93.3568 21.2116 92.7282 20.0455C92.0696 18.8487 91.7403 17.4617 91.7403 15.8844C91.7403 14.3072 92.0606 12.9202 92.7012 11.7234C93.3125 10.5565 94.2517 9.59385 95.4032 8.9539C96.6279 8.28798 98.0049 7.95218 99.3987 7.97949C100.748 7.95578 102.081 8.28157 103.268 8.92519C104.384 9.54093 105.301 10.4632 105.91 11.5832C106.559 12.7929 106.885 14.1491 106.858 15.5214C106.861 16.0432 106.822 16.5643 106.743 17.0801ZM103.534 14.52C103.515 13.3514 103.098 12.4141 102.283 11.7082C101.468 11.0023 100.455 10.6499 99.2433 10.6511C98.2076 10.6294 97.2023 11.0025 96.4316 11.6947C95.6525 12.3905 95.1887 13.3322 95.0401 14.52H103.534Z" fill="#282828"/>
<path d="M120.951 8.73122C121.906 9.23027 122.687 10.0061 123.192 10.957C123.729 11.9421 123.999 13.1298 124 14.5202V23.5667H120.86V14.993C120.86 13.6195 120.517 12.5669 119.832 11.8351C119.146 11.1033 118.209 10.7363 117.02 10.734C115.831 10.734 114.89 11.1011 114.195 11.8351C113.5 12.5691 113.152 13.6218 113.151 14.993V23.5667H109.971V8.2246H113.144V9.9775C113.681 9.3346 114.363 8.82915 115.134 8.50324C115.946 8.14946 116.823 7.96942 117.709 7.97467C118.836 7.95724 119.949 8.21705 120.951 8.73122Z" fill="#282828"/>
<path d="M135.468 10.8182V8.22435H131.737V5.05122L128.537 6.06447V8.22435H126.727V10.8132H128.537V19.3024C128.537 20.8054 128.917 21.8912 129.677 22.56C130.437 23.2287 131.532 23.5625 132.961 23.5614H135.468V20.9236H133.526C132.874 20.9236 132.416 20.7969 132.148 20.547C131.879 20.2971 131.744 19.8817 131.744 19.3075V10.8182H135.468Z" fill="#282828"/>
<path d="M147.728 8.68872C148.575 9.10241 149.313 9.7078 149.885 10.4568V8.22432H153.093V23.8113C153.117 25.1237 152.81 26.4209 152.202 27.5839C151.613 28.6814 150.719 29.5852 149.628 30.1863C148.502 30.8156 147.161 31.1308 145.606 31.132C143.526 31.132 141.8 30.645 140.428 29.6712C139.769 29.2248 139.217 28.6379 138.813 27.953C138.408 27.268 138.159 26.5018 138.086 25.7094H141.23C141.484 26.5248 142.035 27.2153 142.774 27.6447C143.626 28.1537 144.606 28.4097 145.599 28.3827C146.879 28.3827 147.913 27.9932 148.703 27.2141C149.492 26.435 149.886 25.303 149.885 23.8181V21.2563C149.258 22.0663 148.452 22.7193 147.529 23.1637C146.606 23.608 145.593 23.8315 144.569 23.8164C143.278 23.8305 142.009 23.4793 140.909 22.8031C139.793 22.1147 138.887 21.1327 138.292 19.9644C137.636 18.6843 137.306 17.2618 137.332 15.8236C137.304 14.4008 137.634 12.9938 138.292 11.7318C138.889 10.5874 139.792 9.63072 140.9 8.96758C142.008 8.30443 143.278 7.96069 144.569 7.9744C145.664 7.95486 146.748 8.1999 147.728 8.68872ZM149.231 13.1216C148.834 12.3822 148.242 11.7659 147.519 11.34C146.827 10.935 146.039 10.7233 145.237 10.727C144.437 10.723 143.649 10.9297 142.954 11.3265C142.232 11.7413 141.64 12.348 141.242 13.0794C140.788 13.9214 140.563 14.8675 140.588 15.8236C140.567 16.7917 140.792 17.7493 141.242 18.6066C141.637 19.3622 142.235 19.993 142.968 20.4288C143.653 20.8404 144.438 21.0581 145.237 21.0587C146.039 21.063 146.827 20.8518 147.519 20.4474C148.244 20.0192 148.837 19.3984 149.231 18.6539C149.682 17.8018 149.907 16.8483 149.885 15.8844C149.91 14.9224 149.685 13.9704 149.231 13.1216Z" fill="#282828"/>
<path d="M162.285 8.63308C163.126 8.17992 164.071 7.95462 165.026 7.97954V11.2641H164.218C162.98 11.2641 162.038 11.5793 161.393 12.2098C160.748 12.8403 160.428 13.9351 160.434 15.4944V23.5665H157.261V8.22441H160.434V10.4518C160.879 9.69228 161.518 9.0646 162.285 8.63308Z" fill="#282828"/>
<path d="M168.116 5.61347C167.825 5.33041 167.625 4.96617 167.543 4.56807C167.461 4.16997 167.5 3.7564 167.656 3.38109C167.812 3.00578 168.078 2.68607 168.418 2.4635C168.758 2.24093 169.157 2.12577 169.563 2.133C169.827 2.12827 170.09 2.17785 170.334 2.27866C170.578 2.37946 170.798 2.52934 170.982 2.71899C171.358 3.10705 171.568 3.62605 171.568 4.16623C171.568 4.7064 171.358 5.2254 170.982 5.61347C170.798 5.80257 170.577 5.95198 170.333 6.05247C170.089 6.15296 169.827 6.20241 169.563 6.19777C169.295 6.20415 169.028 6.15561 168.779 6.05513C168.531 5.95465 168.305 5.80435 168.116 5.61347Z" fill="#282828"/>
<path d="M171.122 8.22925H167.949V23.5663H171.122V8.22925Z" fill="#282828"/>
<path d="M175.198 11.7369C175.798 10.5882 176.706 9.62874 177.819 8.96533C178.932 8.30191 180.208 7.96061 181.504 7.97946C182.527 7.98417 183.537 8.20697 184.468 8.63299C185.372 9.01596 186.169 9.61289 186.791 10.3724V2.96899H190V23.5715H186.791V21.2563C186.231 22.0336 185.491 22.664 184.635 23.0936C183.657 23.5891 182.572 23.8372 181.475 23.8164C180.184 23.8305 178.916 23.4793 177.816 22.8031C176.7 22.1142 175.795 21.1323 175.198 19.9644C174.542 18.6843 174.213 17.2618 174.239 15.8236C174.212 14.4026 174.541 12.9973 175.198 11.7369ZM186.138 13.1216C185.741 12.3822 185.149 11.7659 184.425 11.34C183.734 10.9349 182.946 10.7232 182.144 10.727C181.343 10.723 180.556 10.9297 179.861 11.3265C179.139 11.7414 178.547 12.3482 178.15 13.0794C177.695 13.921 177.469 14.8673 177.495 15.8236C177.473 16.7919 177.699 17.7498 178.15 18.6066C178.545 19.3621 179.142 19.9929 179.874 20.4288C180.56 20.8404 181.344 21.0581 182.144 21.0587C182.946 21.0631 183.733 20.852 184.425 20.4474C185.151 20.0188 185.744 19.3974 186.138 18.6522C186.589 17.8001 186.814 16.8466 186.791 15.8827C186.816 14.9213 186.591 13.9699 186.138 13.1216Z" fill="#282828"/>
</svg>
