<svg width="22" height="22" viewBox="0 0 22 22" fill="none" xmlns="http://www.w3.org/2000/svg">
<path d="M4.58333 19.25C4.07917 19.25 3.64742 19.0706 3.28808 18.7119C2.92936 18.3526 2.75 17.9208 2.75 17.4167V4.58333C2.75 4.07917 2.92936 3.64742 3.28808 3.28808C3.64742 2.92936 4.07917 2.75 4.58333 2.75H17.4167C17.9208 2.75 18.3526 2.92936 18.7119 3.28808C19.0706 3.64742 19.25 4.07917 19.25 4.58333V17.4167C19.25 17.9208 19.0706 18.3526 18.7119 18.7119C18.3526 19.0706 17.9208 19.25 17.4167 19.25H4.58333ZM11 14.6667C11.5806 14.6667 12.1076 14.4986 12.5813 14.1625C13.0549 13.8264 13.3833 13.3833 13.5667 12.8333H17.4167V4.58333H4.58333V12.8333H8.43333C8.61667 13.3833 8.94514 13.8264 9.41875 14.1625C9.89236 14.4986 10.4194 14.6667 11 14.6667Z" fill="#2397F3"/>
</svg>
