<svg width="80" height="14" viewBox="0 0 80 14" fill="none" xmlns="http://www.w3.org/2000/svg">
<path d="M11.0537 5.51007C11.0534 6.40865 10.8342 7.29363 10.4149 8.08839C9.9956 8.88314 9.38891 9.56372 8.64735 10.0712C7.90579 10.5787 7.05171 10.8978 6.15906 11.0008C5.26641 11.1039 4.3621 10.9878 3.52442 10.6626V5.51007C3.524 5.95382 3.65521 6.38772 3.90144 6.75688C4.14767 7.12605 4.49787 7.41389 4.90772 7.58399C5.31757 7.7541 5.76866 7.79882 6.20394 7.7125C6.63921 7.62618 7.0391 7.41271 7.35303 7.09908C7.66695 6.78544 7.8808 6.38575 7.96753 5.95056C8.05425 5.51537 8.00995 5.06423 7.84023 4.65422C7.67051 4.24421 7.383 3.89375 7.01406 3.64717C6.64513 3.4006 6.21135 3.26898 5.7676 3.26898C5.47303 3.2688 5.18131 3.32667 4.90912 3.43929C4.63692 3.55192 4.3896 3.71708 4.18127 3.92534C3.97294 4.1336 3.8077 4.38088 3.695 4.65303C3.58229 4.92519 3.52433 5.21689 3.52442 5.51146V5.35139H0.00341292C0.0493389 3.90286 0.662419 2.53034 1.71058 1.5295C2.75875 0.528655 4.1581 -0.0204116 5.60721 0.00058051C7.05631 0.0215727 8.43918 0.610945 9.45791 1.64173C10.4766 2.67251 11.0497 4.06222 11.0537 5.51146V5.51007Z" fill="#77AEF6"/>
<path d="M3.5245 9.52629V14.0001H0V5.51037C0 7.34112 1.46097 8.90205 3.5245 9.52629Z" fill="#87CEFA"/>
<path d="M3.5245 5.34999V10.6626C2.48583 10.2595 1.59336 9.55173 0.964332 8.63214C0.335306 7.71255 -0.00085771 6.62421 1.6435e-06 5.51007C1.6435e-06 5.45624 2.92335e-06 5.40451 0.00349807 5.34999H3.5245Z" fill="#87CEFA"/>
<path d="M17.9809 3.66264C18.3908 3.45535 18.845 3.35095 19.3043 3.35845C19.8469 3.3519 20.3806 3.49631 20.8458 3.77556C21.3111 4.05481 21.6895 4.45789 21.9389 4.9398C22.2119 5.47212 22.3486 6.06378 22.3369 6.66187C22.3472 7.26528 22.2106 7.86213 21.9389 8.401C21.6916 8.89305 21.3125 9.30669 20.8437 9.59572C20.3806 9.88026 19.8464 10.0281 19.3029 10.0222C18.8478 10.0306 18.3975 9.92817 17.9909 9.72365C17.6308 9.54265 17.3119 9.28933 17.0542 8.97953V12.9851H15.7201V3.4615H17.0556V4.41031C17.3049 4.09567 17.621 3.84031 17.9809 3.66264ZM20.7044 5.51051C20.5359 5.2016 20.2843 4.94604 19.9781 4.77278C19.6832 4.60628 19.3501 4.51933 19.0115 4.52048C18.6761 4.52041 18.3467 4.60945 18.057 4.77847C17.751 4.95493 17.4996 5.21242 17.3306 5.52259C17.1402 5.87895 17.0455 6.27858 17.0556 6.68248C17.0461 7.08813 17.1408 7.48944 17.3306 7.84806C17.492 8.15407 17.7338 8.41027 18.03 8.5891C18.3262 8.76792 18.6655 8.86261 19.0115 8.86297C19.3516 8.86424 19.6857 8.7731 19.9781 8.59929C20.2866 8.41591 20.538 8.15041 20.7044 7.83243C20.8941 7.47119 20.9887 7.06764 20.9795 6.65974C20.9897 6.25831 20.8949 5.86118 20.7044 5.50766V5.51051Z" fill="#282828"/>
<path d="M23.6212 4.93944C23.8726 4.45771 24.2526 4.05498 24.7188 3.77587C25.1851 3.49676 25.7195 3.35216 26.2629 3.35809C26.7239 3.34741 27.1805 3.4499 27.5927 3.65659C27.9462 3.83493 28.2561 4.089 28.5003 4.40071V3.46115H29.8506V9.9159H28.5003V8.95714C28.2543 9.27811 27.9383 9.53869 27.5763 9.71903C27.1273 9.93848 26.6306 10.0421 26.1313 10.0205C25.6321 9.99892 25.1461 9.85277 24.7178 9.59536C24.2509 9.30411 23.8722 8.89106 23.6226 8.40064C23.3464 7.86238 23.2075 7.26425 23.2182 6.65938C23.2064 6.06138 23.345 5.46998 23.6212 4.93944ZM28.2252 5.52223C28.058 5.21118 27.8087 4.95187 27.5045 4.77242C27.2131 4.60188 26.8813 4.51278 26.5436 4.51443C26.207 4.51285 25.8758 4.59986 25.5835 4.76674C25.2796 4.94128 25.0302 5.19665 24.8628 5.50446C24.6719 5.85883 24.577 6.257 24.5877 6.65938C24.5787 7.0668 24.6734 7.46983 24.8628 7.83065C25.0292 8.14863 25.2807 8.41413 25.5891 8.59752C25.8775 8.77064 26.2073 8.86226 26.5436 8.86261C26.8812 8.86451 27.2131 8.77566 27.5045 8.60533C27.8097 8.42466 28.0591 8.16322 28.2252 7.84984C28.415 7.49121 28.5097 7.08991 28.5003 6.68426C28.5107 6.27963 28.4159 5.87923 28.2252 5.52223Z" fill="#282828"/>
<path d="M34.7321 4.55279V3.46113H33.1635V2.19534L31.8132 2.62177V3.46113H31.0541V4.55066H31.8182V8.12345C31.8182 8.75599 31.9781 9.21298 32.2979 9.49443C32.6177 9.77587 33.0787 9.91636 33.681 9.91588H34.7321V8.80574H33.9119C33.639 8.80574 33.445 8.75243 33.332 8.64725C33.219 8.54206 33.1635 8.36723 33.1635 8.12558V4.55279H34.7321Z" fill="#282828"/>
<path d="M36.0323 2.36274C35.9095 2.24361 35.8254 2.09032 35.7909 1.92277C35.7564 1.75523 35.773 1.58118 35.8387 1.42322C35.9044 1.26527 36.0161 1.13072 36.1592 1.03705C36.3023 0.943373 36.4703 0.894909 36.6414 0.897949C36.7526 0.896033 36.863 0.916928 36.9658 0.959345C37.0686 1.00176 37.1616 1.0648 37.2391 1.14457C37.3969 1.30806 37.4851 1.52642 37.4851 1.75366C37.4851 1.98089 37.3969 2.19925 37.2391 2.36274C37.1615 2.44228 37.0684 2.50512 36.9656 2.5474C36.8628 2.58969 36.7525 2.61053 36.6414 2.60865C36.5284 2.61134 36.4162 2.59091 36.3114 2.54862C36.2067 2.50633 36.1117 2.44308 36.0323 2.36274Z" fill="#282828"/>
<path d="M37.298 3.46335H35.9626V9.9181H37.298V3.46335Z" fill="#282828"/>
<path d="M44.9236 7.1883H39.9912C40.0306 7.70428 40.222 8.11839 40.5655 8.43063C40.9112 8.74379 41.3643 8.91156 41.8306 8.899C42.5484 8.899 43.0559 8.59836 43.3529 7.99709H44.7943C44.6043 8.58329 44.2329 9.09398 43.7339 9.45549C43.2222 9.83454 42.5877 10.0241 41.8306 10.0241C41.2509 10.0336 40.679 9.89022 40.1725 9.60829C39.6875 9.33328 39.2899 8.92707 39.0254 8.43632C38.7482 7.93266 38.6096 7.34892 38.6096 6.68511C38.6096 6.02129 38.7444 5.43756 39.014 4.93389C39.2713 4.4428 39.6666 4.03765 40.1512 3.76832C40.6666 3.48806 41.2461 3.34673 41.8327 3.35823C42.4007 3.34825 42.9616 3.48536 43.461 3.75623C43.9309 4.01537 44.3168 4.40354 44.5732 4.87491C44.8462 5.38401 44.9835 5.95478 44.972 6.5323C44.9732 6.7519 44.957 6.97125 44.9236 7.1883ZM43.5733 6.11085C43.5652 5.61903 43.3897 5.22458 43.0466 4.9275C42.7036 4.63042 42.2771 4.48211 41.7673 4.48259C41.3314 4.47345 40.9084 4.63048 40.584 4.92181C40.2561 5.21463 40.0609 5.61098 39.9983 6.11085H43.5733Z" fill="#282828"/>
<path d="M50.9036 3.6746C51.3052 3.88464 51.634 4.21116 51.8467 4.61133C52.0727 5.02592 52.186 5.52579 52.1864 6.11095V9.91827H50.8652V6.30995C50.8652 5.7319 50.7209 5.28888 50.4324 4.98091C50.1438 4.67293 49.7494 4.51846 49.249 4.51752C48.7487 4.51752 48.3524 4.67198 48.06 4.98091C47.7677 5.28983 47.6213 5.73285 47.6208 6.30995V9.91827H46.2825V3.46139H47.6179V4.19912C47.8436 3.92855 48.1306 3.71582 48.4552 3.57866C48.797 3.42977 49.1662 3.35399 49.539 3.3562C50.0131 3.34887 50.4817 3.45821 50.9036 3.6746Z" fill="#282828"/>
<path d="M57.0126 4.55308V3.46142H55.4427V2.12598L54.0958 2.55241V3.46142H53.334V4.55095H54.0958V8.12373C54.0958 8.75627 54.2558 9.21327 54.5756 9.49471C54.8954 9.77616 55.3562 9.91664 55.9579 9.91617H57.0126V8.80602H56.1953C55.921 8.80602 55.7284 8.75272 55.6154 8.64753C55.5024 8.54234 55.4455 8.36751 55.4455 8.12587V4.55308H57.0126Z" fill="#282828"/>
<path d="M62.1727 3.65695C62.529 3.83105 62.8397 4.08583 63.0803 4.40107V3.4615H64.4307V10.0214C64.4405 10.5738 64.3115 11.1197 64.0554 11.6092C63.8075 12.0711 63.4314 12.4514 62.9723 12.7044C62.4985 12.9693 61.9341 13.1019 61.2793 13.1024C60.4042 13.1024 59.6778 12.8975 59.1003 12.4876C58.823 12.2997 58.5909 12.0528 58.4204 11.7645C58.25 11.4762 58.1455 11.1537 58.1145 10.8203H59.4379C59.545 11.1634 59.7767 11.454 60.0875 11.6348C60.4463 11.849 60.8587 11.9567 61.2765 11.9454C61.8152 11.9454 62.2507 11.7814 62.5828 11.4535C62.9149 11.1257 63.0808 10.6492 63.0803 10.0243V8.94612C62.8166 9.28703 62.4771 9.56187 62.0888 9.74888C61.7005 9.93589 61.2739 10.0299 60.843 10.0236C60.2996 10.0295 59.7657 9.88169 59.3028 9.59714C58.833 9.30741 58.452 8.89411 58.2012 8.40242C57.9251 7.86367 57.7864 7.26502 57.7975 6.65973C57.7856 6.06095 57.9244 5.46878 58.2012 4.93766C58.4528 4.45603 58.8328 4.0534 59.299 3.7743C59.7652 3.49521 60.2996 3.35055 60.843 3.35631C61.3039 3.34809 61.7601 3.45122 62.1727 3.65695ZM62.8052 5.52258C62.6382 5.21138 62.3889 4.95202 62.0846 4.77278C61.7934 4.60233 61.4618 4.51323 61.1244 4.51478C60.7875 4.51308 60.4561 4.6001 60.1635 4.76709C59.8597 4.94163 59.6102 5.197 59.4428 5.50482C59.2519 5.85918 59.1571 6.25735 59.1678 6.65973C59.1588 7.06715 59.2534 7.47018 59.4428 7.831C59.6092 8.14898 59.8607 8.41448 60.1692 8.59787C60.4577 8.77108 60.7879 8.86271 61.1244 8.86296C61.4617 8.86477 61.7933 8.77592 62.0846 8.60568C62.3899 8.42549 62.6394 8.16424 62.8052 7.8509C62.9951 7.49228 63.0898 7.09097 63.0803 6.68532C63.0909 6.28046 62.9961 5.87979 62.8052 5.52258Z" fill="#282828"/>
<path d="M68.2991 3.63317C68.653 3.44245 69.0507 3.34763 69.4526 3.35812V4.74047H69.1129C68.5917 4.74047 68.1953 4.87313 67.9238 5.13847C67.6523 5.4038 67.5178 5.86459 67.5201 6.52082V9.91805H66.1847V3.46117H67.5201V4.39861C67.7074 4.07894 67.9762 3.81478 68.2991 3.63317Z" fill="#282828"/>
<path d="M70.7533 2.36274C70.6306 2.24361 70.5464 2.09032 70.5119 1.92277C70.4774 1.75523 70.4941 1.58118 70.5598 1.42322C70.6254 1.26527 70.7371 1.13072 70.8802 1.03705C71.0234 0.943373 71.1914 0.894909 71.3624 0.897949C71.4735 0.895962 71.5838 0.916828 71.6865 0.959252C71.7892 1.00168 71.8821 1.06475 71.9594 1.14457C72.1175 1.30789 72.206 1.52632 72.206 1.75366C72.206 1.98099 72.1175 2.19942 71.9594 2.36274C71.882 2.44233 71.789 2.50521 71.6864 2.5475C71.5837 2.58979 71.4734 2.6106 71.3624 2.60865C71.2495 2.61134 71.1372 2.59091 71.0325 2.54862C70.9277 2.50633 70.8327 2.44308 70.7533 2.36274Z" fill="#282828"/>
<path d="M72.0184 3.46335H70.683V9.9181H72.0184V3.46335Z" fill="#282828"/>
<path d="M73.7337 4.93961C73.9863 4.45619 74.3682 4.05238 74.8367 3.77318C75.3053 3.49397 75.8422 3.35033 76.3876 3.35826C76.8182 3.36025 77.2434 3.45401 77.6349 3.63331C78.0154 3.79449 78.351 4.04571 78.6128 4.36535V1.24956H79.9632V9.92034H78.6128V8.94594C78.3771 9.27309 78.0657 9.53838 77.7052 9.7192C77.2935 9.92772 76.8369 10.0322 76.3755 10.0234C75.8322 10.0293 75.2982 9.88151 74.8354 9.59696C74.3657 9.30703 73.9847 8.89378 73.7337 8.40224C73.4576 7.86349 73.3189 7.26484 73.3301 6.65955C73.3185 6.06149 73.4573 5.47009 73.7337 4.93961ZM78.3378 5.5224C78.1707 5.2112 77.9214 4.95184 77.6171 4.7726C77.326 4.60208 76.9943 4.51298 76.6569 4.5146C76.32 4.5129 75.9886 4.59992 75.696 4.76691C75.3924 4.9415 75.1432 5.19687 74.9761 5.50464C74.7846 5.85881 74.6895 6.25707 74.7003 6.65955C74.6912 7.06707 74.7861 7.47019 74.9761 7.83082C75.1422 8.14875 75.3934 8.41426 75.7017 8.59769C75.9903 8.77091 76.3204 8.86253 76.6569 8.86278C76.9943 8.86466 77.3259 8.7758 77.6171 8.6055C77.9225 8.42512 78.172 8.16361 78.3378 7.85001C78.5276 7.49139 78.6223 7.09008 78.6128 6.68443C78.6233 6.27981 78.5285 5.8794 78.3378 5.5224Z" fill="#282828"/>
</svg>
