<svg width="40" height="39" viewBox="0 0 40 39" fill="none" xmlns="http://www.w3.org/2000/svg">
<path d="M17.1363 2.08052C18.0377 -0.69357 21.9623 -0.69357 22.8637 2.08052L25.5208 10.2584C25.9239 11.499 27.08 12.339 28.3845 12.339H36.9832C39.9001 12.339 41.1128 16.0715 38.753 17.786L31.7965 22.8402C30.7412 23.6069 30.2996 24.966 30.7027 26.2066L33.3598 34.3845C34.2612 37.1586 31.0861 39.4654 28.7264 37.7509L21.7698 32.6967C20.7145 31.93 19.2855 31.93 18.2302 32.6967L11.2736 37.7509C8.91386 39.4654 5.73879 37.1586 6.64015 34.3845L9.2973 26.2066C9.7004 24.966 9.25881 23.6069 8.20348 22.8402L1.24697 17.786C-1.11282 16.0715 0.0999501 12.339 3.0168 12.339H11.6155C12.92 12.339 14.0761 11.499 14.4792 10.2584L17.1363 2.08052Z" fill="#FDCF75"/>
</svg>
